<svg width="77" height="143" viewBox="0 0 77 143" fill="none" xmlns="http://www.w3.org/2000/svg">
<path d="M31.509 97.6845C30.3207 93.8543 28.2958 79.8289 40.8312 79.263C45.8539 79.0363 49.7373 82.6818 50.9204 86.4372C52.1347 90.294 51.2885 103.993 37.1549 104.988C31.1737 105.41 22.6393 101.334 19.5706 96.136C9.14536 78.4942 25.8888 67.7005 28.0108 66.0471C35.8801 59.9647 62.4497 52.2277 63.5498 18.4426C63.6446 15.3691 63.1581 11.8565 61.1755 9.38317C57.6484 5.00323 52.4413 7.33726 49.0208 10.2404C44.7939 13.814 41.411 22.986 40.5763 28.3013C37.686 46.6589 39.6966 66.2055 39.6754 67.4953C39.6373 69.7074 40.5949 89.7457 40.7057 91.1582C42.6061 113.554 41.0537 121.105 38.6354 127.673C35.814 135.344 23.5974 138.724 19.9833 130.043C21.7714 130.654 26.9519 129.388 27.5821 124.44C28.3952 118.036 23.1598 115.545 18.527 116.664C14.1273 117.728 11.9279 123.217 13.5846 128.314C15.4636 134.101 24.2521 139.263 31.685 137.465C48.0632 133.496 43.4423 95.8857 42.9118 89.4069C42.3035 82.1539 39.2378 41.7381 44.0856 26.6166C46.5263 19.0015 53.8834 12.7998 57.1358 17.3318C60.6466 22.2344 58.1189 29.5152 56.9474 32.0021C53.1453 40.0222 45.9349 45.4344 38.4949 49.7455C31.2828 53.9262 22.7279 59.1684 17.2784 65.6178C11.3124 72.6624 9.21679 85.8435 13.8169 94.3974C15.39 97.3098 19.5501 103.571 27.3671 106.411C39.0553 110.674 57.0933 108.615 59.663 90.5263C61.9281 74.6138 44.5527 66.5643 33.9178 72.1219C31.4991 73.3861 29.2279 75.3445 27.6913 77.7643C23.637 84.1945 24.7914 94.1837 31.509 97.6845Z" fill="url(#paint0_linear)"/>
<defs>
<linearGradient id="paint0_linear" x1="52.4021" y1="5.97449" x2="24.4872" y2="137.304" gradientUnits="userSpaceOnUse">
<stop stop-color="#485563"/>
<stop offset="1" stop-color="#29323C"/>
</linearGradient>
</defs>
</svg>
