<svg width="31" height="31" viewBox="0 0 31 31" fill="none" xmlns="http://www.w3.org/2000/svg">
<path d="M3.104 3.46871C3.104 3.37202 3.14242 3.27928 3.21079 3.21091C3.27916 3.14254 3.37189 3.10413 3.46859 3.10413H23.1561C23.2528 3.10413 23.3455 3.14254 23.4139 3.21091C23.4823 3.27928 23.5207 3.37202 23.5207 3.46871V18.052C23.5207 18.3421 23.6359 18.6203 23.841 18.8254C24.0461 19.0306 24.3243 19.1458 24.6144 19.1458C24.9045 19.1458 25.1827 19.0306 25.3878 18.8254C25.5929 18.6203 25.7082 18.3421 25.7082 18.052V3.46871C25.7082 2.79185 25.4393 2.14272 24.9607 1.66411C24.4821 1.18551 23.8329 0.916626 23.1561 0.916626H3.46859C2.79173 0.916626 2.1426 1.18551 1.66399 1.66411C1.18538 2.14272 0.916504 2.79185 0.916504 3.46871V27.5312C0.916504 28.94 2.05984 30.0833 3.46859 30.0833H13.6769C13.967 30.0833 14.2452 29.9681 14.4503 29.7629C14.6554 29.5578 14.7707 29.2796 14.7707 28.9895C14.7707 28.6995 14.6554 28.4213 14.4503 28.2161C14.2452 28.011 13.967 27.8958 13.6769 27.8958H3.46859C3.37189 27.8958 3.27916 27.8574 3.21079 27.789C3.14242 27.7206 3.104 27.6279 3.104 27.5312V3.46871Z" fill="url(#paint0_linear)"/>
<path d="M7.11475 8.20837C6.82467 8.20837 6.54647 8.32361 6.34135 8.52873C6.13623 8.73384 6.021 9.01204 6.021 9.30212C6.021 9.5922 6.13623 9.8704 6.34135 10.0755C6.54647 10.2806 6.82467 10.3959 7.11475 10.3959H19.5106C19.8007 10.3959 20.0789 10.2806 20.284 10.0755C20.4891 9.8704 20.6043 9.5922 20.6043 9.30212C20.6043 9.01204 20.4891 8.73384 20.284 8.52873C20.0789 8.32361 19.8007 8.20837 19.5106 8.20837H7.11475ZM6.021 15.1355C6.021 14.8454 6.13623 14.5672 6.34135 14.3621C6.54647 14.1569 6.82467 14.0417 7.11475 14.0417H13.6772C13.9673 14.0417 14.2455 14.1569 14.4506 14.3621C14.6558 14.5672 14.771 14.8454 14.771 15.1355C14.771 15.4255 14.6558 15.7037 14.4506 15.9089C14.2455 16.114 13.9673 16.2292 13.6772 16.2292H7.11475C6.82467 16.2292 6.54647 16.114 6.34135 15.9089C6.13623 15.7037 6.021 15.4255 6.021 15.1355ZM29.7627 21.7417C29.8701 21.6416 29.9563 21.5208 30.0161 21.3867C30.0759 21.2525 30.108 21.1077 30.1106 20.9608C30.1132 20.8139 30.0862 20.6681 30.0312 20.5319C29.9762 20.3957 29.8943 20.272 29.7904 20.1681C29.6866 20.0642 29.5628 19.9824 29.4267 19.9274C29.2905 19.8724 29.1446 19.8453 28.9977 19.8479C28.8509 19.8505 28.706 19.8827 28.5719 19.9424C28.4377 20.0022 28.317 20.0884 28.2168 20.1959L20.9689 27.4438L18.096 24.5709C17.9959 24.4634 17.8751 24.3772 17.7409 24.3174C17.6068 24.2577 17.4619 24.2255 17.3151 24.2229C17.1682 24.2203 17.0224 24.2474 16.8862 24.3024C16.75 24.3574 16.6263 24.4393 16.5224 24.5431C16.4185 24.647 16.3367 24.7707 16.2816 24.9069C16.2266 25.0431 16.1996 25.1889 16.2022 25.3358C16.2048 25.4827 16.237 25.6275 16.2967 25.7617C16.3565 25.8958 16.4427 26.0166 16.5502 26.1167L20.196 29.7625C20.4011 29.9674 20.6791 30.0824 20.9689 30.0824C21.2588 30.0824 21.5368 29.9674 21.7418 29.7625L29.7627 21.7417Z" fill="url(#paint1_linear)"/>
<defs>
<linearGradient id="paint0_linear" x1="13.3123" y1="0.916626" x2="13.3123" y2="30.0833" gradientUnits="userSpaceOnUse">
<stop stop-color="#485563"/>
<stop offset="1" stop-color="#29323C"/>
</linearGradient>
<linearGradient id="paint1_linear" x1="18.0659" y1="8.20837" x2="18.0659" y2="30.0824" gradientUnits="userSpaceOnUse">
<stop stop-color="#485563"/>
<stop offset="1" stop-color="#29323C"/>
</linearGradient>
</defs>
</svg>
