<svg width="31" height="29" viewBox="0 0 31 29" fill="none" xmlns="http://www.w3.org/2000/svg">
<path d="M19.5675 10.75C20.3134 10.75 21.0288 11.0463 21.5562 11.5738C22.0837 12.1012 22.38 12.8166 22.38 13.5625V21.3738C22.38 23.1974 21.6555 24.9464 20.366 26.236C19.0764 27.5255 17.3274 28.25 15.5037 28.25C13.6801 28.25 11.9311 27.5255 10.6415 26.236C9.35196 24.9464 8.6275 23.1974 8.6275 21.3738V13.5625C8.6275 12.8166 8.92382 12.1012 9.45126 11.5738C9.97871 11.0463 10.6941 10.75 11.44 10.75H19.5675ZM19.5675 12.625H11.44C11.1914 12.625 10.9529 12.7238 10.7771 12.8996C10.6013 13.0754 10.5025 13.3139 10.5025 13.5625V21.3738C10.5025 22.7002 11.0294 23.9723 11.9673 24.9102C12.9052 25.8481 14.1773 26.375 15.5037 26.375C16.8302 26.375 18.1023 25.8481 19.0402 24.9102C19.9781 23.9723 20.505 22.7002 20.505 21.3738V13.5625C20.505 13.3139 20.4062 13.0754 20.2304 12.8996C20.0546 12.7238 19.8161 12.625 19.5675 12.625ZM3.3125 10.75H8.5075C8.00565 11.2725 7.653 11.92 7.48625 12.625H3.3125C3.06386 12.625 2.8254 12.7238 2.64959 12.8996C2.47377 13.0754 2.375 13.3139 2.375 13.5625V20.1238C2.37483 20.7509 2.53193 21.3682 2.83191 21.919C3.13189 22.4698 3.56519 22.9366 4.09217 23.2766C4.61915 23.6167 5.223 23.8193 5.84847 23.8657C6.47394 23.9121 7.10107 23.801 7.6725 23.5425C7.83875 24.155 8.0775 24.7375 8.3775 25.2825C7.52109 25.6564 6.58502 25.8111 5.65384 25.7327C4.72265 25.6542 3.82568 25.345 3.04391 24.8331C2.26214 24.3211 1.6202 23.6225 1.17607 22.8003C0.731929 21.9781 0.49958 21.0582 0.500001 20.1238V13.5625C0.500001 12.8166 0.796317 12.1012 1.32376 11.5738C1.85121 11.0463 2.56658 10.75 3.3125 10.75ZM27.6875 10.75C28.4334 10.75 29.1488 11.0463 29.6762 11.5738C30.2037 12.1012 30.5 12.8166 30.5 13.5625V20.125C30.5004 21.059 30.2682 21.9783 29.8244 22.8001C29.3806 23.6219 28.7392 24.3202 27.958 24.8321C27.1769 25.344 26.2805 25.6533 25.3499 25.7322C24.4193 25.811 23.4837 25.6569 22.6275 25.2838L22.6975 25.1562C22.965 24.6488 23.1812 24.11 23.3362 23.545C23.9074 23.802 24.5338 23.9118 25.1582 23.8645C25.7827 23.8172 26.3854 23.6143 26.9113 23.2742C27.4372 22.9341 27.8695 22.4678 28.1689 21.9177C28.4682 21.3676 28.625 20.7513 28.625 20.125V13.5625C28.625 13.3141 28.5264 13.0758 28.3509 12.9C28.1753 12.7242 27.9372 12.6253 27.6887 12.625H23.5225C23.3554 11.9198 23.0024 11.2723 22.5 10.75H27.6887H27.6875ZM15.5 0.75C16.0745 0.75 16.6434 0.863163 17.1742 1.08303C17.705 1.30289 18.1873 1.62515 18.5936 2.03141C18.9998 2.43766 19.3221 2.91996 19.542 3.45076C19.7618 3.98156 19.875 4.55047 19.875 5.125C19.875 5.69953 19.7618 6.26844 19.542 6.79924C19.3221 7.33004 18.9998 7.81234 18.5936 8.21859C18.1873 8.62485 17.705 8.94711 17.1742 9.16697C16.6434 9.38684 16.0745 9.5 15.5 9.5C14.3397 9.5 13.2269 9.03906 12.4064 8.21859C11.5859 7.39812 11.125 6.28532 11.125 5.125C11.125 3.96468 11.5859 2.85188 12.4064 2.03141C13.2269 1.21094 14.3397 0.75 15.5 0.75ZM25.5037 2C25.9962 2 26.4838 2.097 26.9388 2.28545C27.3938 2.47391 27.8072 2.75013 28.1554 3.09835C28.5036 3.44657 28.7798 3.85997 28.9683 4.31494C29.1568 4.76991 29.2537 5.25754 29.2537 5.75C29.2537 6.24246 29.1568 6.73009 28.9683 7.18506C28.7798 7.64003 28.5036 8.05343 28.1554 8.40165C27.8072 8.74987 27.3938 9.02609 26.9388 9.21455C26.4838 9.403 25.9962 9.5 25.5037 9.5C24.5092 9.5 23.5554 9.10491 22.8521 8.40165C22.1488 7.69839 21.7537 6.74456 21.7537 5.75C21.7537 4.75544 22.1488 3.80161 22.8521 3.09835C23.5554 2.39509 24.5092 2 25.5037 2ZM5.49625 2C5.98871 2 6.47634 2.097 6.93131 2.28545C7.38628 2.47391 7.79968 2.75013 8.1479 3.09835C8.49612 3.44657 8.77234 3.85997 8.9608 4.31494C9.14925 4.76991 9.24625 5.25754 9.24625 5.75C9.24625 6.24246 9.14925 6.73009 8.9608 7.18506C8.77234 7.64003 8.49612 8.05343 8.1479 8.40165C7.79968 8.74987 7.38628 9.02609 6.93131 9.21455C6.47634 9.403 5.98871 9.5 5.49625 9.5C4.50169 9.5 3.54786 9.10491 2.8446 8.40165C2.14134 7.69839 1.74625 6.74456 1.74625 5.75C1.74625 4.75544 2.14134 3.80161 2.8446 3.09835C3.54786 2.39509 4.50169 2 5.49625 2ZM15.5 2.625C14.837 2.625 14.2011 2.88839 13.7322 3.35723C13.2634 3.82607 13 4.46196 13 5.125C13 5.78804 13.2634 6.42393 13.7322 6.89277C14.2011 7.36161 14.837 7.625 15.5 7.625C16.163 7.625 16.7989 7.36161 17.2678 6.89277C17.7366 6.42393 18 5.78804 18 5.125C18 4.46196 17.7366 3.82607 17.2678 3.35723C16.7989 2.88839 16.163 2.625 15.5 2.625ZM25.5037 3.875C25.2575 3.875 25.0137 3.9235 24.7862 4.01773C24.5587 4.11195 24.352 4.25006 24.1779 4.42417C24.0038 4.59828 23.8657 4.80498 23.7715 5.03247C23.6772 5.25995 23.6287 5.50377 23.6287 5.75C23.6287 5.99623 23.6772 6.24005 23.7715 6.46753C23.8657 6.69502 24.0038 6.90172 24.1779 7.07583C24.352 7.24994 24.5587 7.38805 24.7862 7.48227C25.0137 7.5765 25.2575 7.625 25.5037 7.625C26.001 7.625 26.4779 7.42746 26.8296 7.07583C27.1812 6.72419 27.3787 6.24728 27.3787 5.75C27.3787 5.25272 27.1812 4.77581 26.8296 4.42417C26.4779 4.07254 26.001 3.875 25.5037 3.875ZM5.49625 3.875C5.25002 3.875 5.00621 3.9235 4.77872 4.01773C4.55123 4.11195 4.34454 4.25006 4.17043 4.42417C3.99632 4.59828 3.8582 4.80498 3.76398 5.03247C3.66975 5.25995 3.62125 5.50377 3.62125 5.75C3.62125 5.99623 3.66975 6.24005 3.76398 6.46753C3.8582 6.69502 3.99632 6.90172 4.17043 7.07583C4.34454 7.24994 4.55123 7.38805 4.77872 7.48227C5.00621 7.5765 5.25002 7.625 5.49625 7.625C5.99353 7.625 6.47045 7.42746 6.82208 7.07583C7.17371 6.72419 7.37125 6.24728 7.37125 5.75C7.37125 5.25272 7.17371 4.77581 6.82208 4.42417C6.47045 4.07254 5.99353 3.875 5.49625 3.875Z" fill="url(#paint0_linear)"/>
<defs>
<linearGradient id="paint0_linear" x1="15.5" y1="0.75" x2="15.5" y2="28.25" gradientUnits="userSpaceOnUse">
<stop stop-color="#485563"/>
<stop offset="1" stop-color="#29323C"/>
</linearGradient>
</defs>
</svg>
