<svg width="31" height="31" viewBox="0 0 31 31" fill="none" xmlns="http://www.w3.org/2000/svg">
<path d="M28.6251 0.916626H2.37508C1.98831 0.916626 1.61737 1.07027 1.34388 1.34376C1.07039 1.61725 0.916748 1.98819 0.916748 2.37496V28.625C0.916748 29.0117 1.07039 29.3827 1.34388 29.6562C1.61737 29.9297 1.98831 30.0833 2.37508 30.0833H28.6251C29.0119 30.0833 29.3828 29.9297 29.6563 29.6562C29.9298 29.3827 30.0834 29.0117 30.0834 28.625V2.37496C30.0834 1.98819 29.9298 1.61725 29.6563 1.34376C29.3828 1.07027 29.0119 0.916626 28.6251 0.916626ZM14.0417 27.1666H3.83342V12.5833H14.0417V27.1666ZM27.1668 27.1666H16.9584V12.5833H27.1668V27.1666ZM27.1668 9.66663H3.83342V3.83329H27.1668V9.66663Z" fill="url(#paint0_linear)"/>
<defs>
<linearGradient id="paint0_linear" x1="15.5001" y1="0.916626" x2="15.5001" y2="30.0833" gradientUnits="userSpaceOnUse">
<stop stop-color="#485563"/>
<stop offset="1" stop-color="#29323C"/>
</linearGradient>
</defs>
</svg>
