<svg width="23" height="31" viewBox="0 0 23 31" fill="none" xmlns="http://www.w3.org/2000/svg">
<path d="M22.1094 8.17188L14.4531 0.515625C14.2344 0.296875 14.0156 0.1875 13.6875 0.1875H2.75C1.54688 0.1875 0.5625 1.17188 0.5625 2.375V28.625C0.5625 29.8281 1.54688 30.8125 2.75 30.8125H20.25C21.4531 30.8125 22.4375 29.8281 22.4375 28.625V8.9375C22.4375 8.60938 22.3281 8.39062 22.1094 8.17188ZM13.6875 2.8125L19.8125 8.9375H13.6875V2.8125ZM20.25 28.625H2.75V2.375H11.5V8.9375C11.5 10.1406 12.4844 11.125 13.6875 11.125H20.25V28.625Z" fill="url(#paint0_linear)"/>
<path d="M4.9375 22.0625H18.0625V24.25H4.9375V22.0625Z" fill="url(#paint1_linear)"/>
<path d="M4.9375 15.5H18.0625V17.6875H4.9375V15.5Z" fill="url(#paint2_linear)"/>
<defs>
<linearGradient id="paint0_linear" x1="11.5" y1="0.1875" x2="11.5" y2="30.8125" gradientUnits="userSpaceOnUse">
<stop stop-color="#485563"/>
<stop offset="1" stop-color="#29323C"/>
</linearGradient>
<linearGradient id="paint1_linear" x1="11.5" y1="22.0625" x2="11.5" y2="24.25" gradientUnits="userSpaceOnUse">
<stop stop-color="#485563"/>
<stop offset="1" stop-color="#29323C"/>
</linearGradient>
<linearGradient id="paint2_linear" x1="11.5" y1="15.5" x2="11.5" y2="17.6875" gradientUnits="userSpaceOnUse">
<stop stop-color="#485563"/>
<stop offset="1" stop-color="#29323C"/>
</linearGradient>
</defs>
</svg>
