<svg width="31" height="27" viewBox="0 0 31 27" fill="none" xmlns="http://www.w3.org/2000/svg">
<path d="M30.8125 9.125V0.375H22.0625V3.65625H17.6875C17.1075 3.65683 16.5515 3.88748 16.1413 4.29759C15.7312 4.7077 15.5006 5.26377 15.5 5.84375V12.4062H8.9375V9.125H0.1875V17.875H8.9375V14.5938H15.5V21.1562C15.5006 21.7362 15.7312 22.2923 16.1413 22.7024C16.5515 23.1125 17.1075 23.3432 17.6875 23.3438H22.0625V26.625H30.8125V17.875H22.0625V21.1562H17.6875V5.84375H22.0625V9.125H30.8125ZM6.75 15.6875H2.375V11.3125H6.75V15.6875ZM24.25 20.0625H28.625V24.4375H24.25V20.0625ZM24.25 2.5625H28.625V6.9375H24.25V2.5625Z" fill="url(#paint0_linear)"/>
<defs>
<linearGradient id="paint0_linear" x1="15.5" y1="0.375" x2="15.5" y2="26.625" gradientUnits="userSpaceOnUse">
<stop stop-color="#485563"/>
<stop offset="1" stop-color="#29323C"/>
</linearGradient>
</defs>
</svg>
