<svg width="30" height="31" viewBox="0 0 30 31" fill="none" xmlns="http://www.w3.org/2000/svg">
<path d="M12.2188 30.8125C9.02786 30.8125 5.96767 29.5449 3.71137 27.2886C1.45507 25.0323 0.1875 21.9721 0.1875 18.7812C0.1875 15.5904 1.45507 12.5302 3.71137 10.2739C5.96767 8.01757 9.02786 6.75 12.2188 6.75C12.5088 6.75 12.787 6.86523 12.9921 7.07035C13.1973 7.27547 13.3125 7.55367 13.3125 7.84375V17.6875H23.1562C23.4463 17.6875 23.7245 17.8027 23.9296 18.0079C24.1348 18.213 24.25 18.4912 24.25 18.7812C24.25 21.9721 22.9824 25.0323 20.7261 27.2886C18.4698 29.5449 15.4096 30.8125 12.2188 30.8125ZM11.125 9.00313C9.28226 9.20815 7.53489 9.92943 6.08408 11.0839C4.63326 12.2384 3.53801 13.7792 2.92441 15.5288C2.31082 17.2785 2.20383 19.1658 2.61578 20.9736C3.02773 22.7814 3.94185 24.436 5.25291 25.7471C6.56396 27.0581 8.21863 27.9723 10.0264 28.3842C11.8342 28.7962 13.7215 28.6892 15.4712 28.0756C17.2208 27.462 18.7616 26.3667 19.9161 24.9159C21.0706 23.4651 21.7919 21.7177 21.9969 19.875H13.3125C12.7323 19.875 12.1759 19.6445 11.7657 19.2343C11.3555 18.8241 11.125 18.2677 11.125 17.6875V9.00313Z" fill="url(#paint0_linear)"/>
<path d="M28.625 13.3125H18.7812C18.2011 13.3125 17.6447 13.082 17.2345 12.6718C16.8242 12.2616 16.5938 11.7052 16.5938 11.125V1.28125C16.5938 0.991169 16.709 0.71297 16.9141 0.507852C17.1192 0.302734 17.3974 0.1875 17.6875 0.1875C20.8784 0.1875 23.9386 1.45507 26.1949 3.71137C28.4512 5.96767 29.7188 9.02786 29.7188 12.2188C29.7188 12.5088 29.6035 12.787 29.3984 12.9921C29.1933 13.1973 28.9151 13.3125 28.625 13.3125ZM18.7812 11.125H27.4656C27.2167 8.90745 26.2218 6.84026 24.6439 5.26237C23.066 3.68448 20.9988 2.68952 18.7812 2.44062V11.125Z" fill="url(#paint1_linear)"/>
<defs>
<linearGradient id="paint0_linear" x1="12.2188" y1="6.75" x2="12.2188" y2="30.8125" gradientUnits="userSpaceOnUse">
<stop stop-color="#485563"/>
<stop offset="1" stop-color="#29323C"/>
</linearGradient>
<linearGradient id="paint1_linear" x1="23.1562" y1="0.1875" x2="23.1562" y2="13.3125" gradientUnits="userSpaceOnUse">
<stop stop-color="#485563"/>
<stop offset="1" stop-color="#29323C"/>
</linearGradient>
</defs>
</svg>
