<svg width="31" height="23" viewBox="0 0 31 23" fill="none" xmlns="http://www.w3.org/2000/svg">
<path d="M13.3125 4.6665C12.738 4.6665 12.1691 4.77967 11.6383 4.99953C11.1075 5.21939 10.6252 5.54165 10.2189 5.94791C9.81265 6.35417 9.49039 6.83646 9.27053 7.36726C9.05066 7.89806 8.9375 8.46697 8.9375 9.0415C8.9375 9.61604 9.05066 10.1849 9.27053 10.7157C9.49039 11.2465 9.81265 11.7288 10.2189 12.1351C10.6252 12.5414 11.1075 12.8636 11.6383 13.0835C12.1691 13.3033 12.738 13.4165 13.3125 13.4165C14.4728 13.4165 15.5856 12.9556 16.4061 12.1351C17.2266 11.3146 17.6875 10.2018 17.6875 9.0415C17.6875 7.88118 17.2266 6.76838 16.4061 5.94791C15.5856 5.12744 14.4728 4.6665 13.3125 4.6665ZM11.125 9.0415C11.125 8.46134 11.3555 7.90494 11.7657 7.49471C12.1759 7.08447 12.7323 6.854 13.3125 6.854C13.8927 6.854 14.4491 7.08447 14.8593 7.49471C15.2695 7.90494 15.5 8.46134 15.5 9.0415C15.5 9.62166 15.2695 10.1781 14.8593 10.5883C14.4491 10.9985 13.8927 11.229 13.3125 11.229C12.7323 11.229 12.1759 10.9985 11.7657 10.5883C11.3555 10.1781 11.125 9.62166 11.125 9.0415Z" fill="url(#paint0_linear)"/>
<path d="M0.916748 3.57275C0.916748 2.70251 1.26245 1.86791 1.8778 1.25256C2.49316 0.637206 3.32776 0.291504 4.198 0.291504H22.4272C22.8581 0.291504 23.2847 0.376376 23.6828 0.541274C24.0809 0.706172 24.4427 0.947868 24.7474 1.25256C25.0521 1.55725 25.2937 1.91897 25.4586 2.31707C25.6235 2.71517 25.7084 3.14185 25.7084 3.57275V14.5103C25.7084 14.9412 25.6235 15.3678 25.4586 15.7659C25.2937 16.164 25.0521 16.5258 24.7474 16.8304C24.4427 17.1351 24.0809 17.3768 23.6828 17.5417C23.2847 17.7066 22.8581 17.7915 22.4272 17.7915H4.198C3.32776 17.7915 2.49316 17.4458 1.8778 16.8304C1.26245 16.2151 0.916748 15.3805 0.916748 14.5103V3.57275ZM4.198 2.479C3.90792 2.479 3.62972 2.59424 3.4246 2.79936C3.21948 3.00447 3.10425 3.28267 3.10425 3.57275V4.6665H4.198C4.48808 4.6665 4.76628 4.55127 4.9714 4.34615C5.17651 4.14103 5.29175 3.86283 5.29175 3.57275V2.479H4.198ZM3.10425 11.229H4.198C5.06824 11.229 5.90284 11.5747 6.51819 12.1901C7.13355 12.8054 7.47925 13.64 7.47925 14.5103V15.604H19.1459V14.5103C19.1459 13.64 19.4916 12.8054 20.107 12.1901C20.7223 11.5747 21.5569 11.229 22.4272 11.229H23.5209V6.854H22.4272C21.5569 6.854 20.7223 6.5083 20.107 5.89295C19.4916 5.27759 19.1459 4.443 19.1459 3.57275V2.479H7.47925V3.57275C7.47925 4.00365 7.39438 4.43033 7.22948 4.82843C7.06458 5.22653 6.82288 5.58826 6.51819 5.89295C6.2135 6.19764 5.85178 6.43934 5.45368 6.60423C5.05558 6.76913 4.6289 6.854 4.198 6.854H3.10425V11.229ZM23.5209 4.6665V3.57275C23.5209 3.28267 23.4057 3.00447 23.2006 2.79936C22.9954 2.59424 22.7172 2.479 22.4272 2.479H21.3334V3.57275C21.3334 4.1765 21.8234 4.6665 22.4272 4.6665H23.5209ZM23.5209 13.4165H22.4272C22.1371 13.4165 21.8589 13.5317 21.6538 13.7369C21.4486 13.942 21.3334 14.2202 21.3334 14.5103V15.604H22.4272C22.7172 15.604 22.9954 15.4888 23.2006 15.2837C23.4057 15.0785 23.5209 14.8003 23.5209 14.5103V13.4165ZM3.10425 14.5103C3.10425 15.114 3.59425 15.604 4.198 15.604H5.29175V14.5103C5.29175 14.2202 5.17651 13.942 4.9714 13.7369C4.76628 13.5317 4.48808 13.4165 4.198 13.4165H3.10425V14.5103Z" fill="url(#paint1_linear)"/>
<path d="M4.41821 19.979C4.8022 20.6444 5.35468 21.1969 6.02004 21.5809C6.68541 21.9649 7.44019 22.1669 8.20842 22.1665H23.1563C24.066 22.1665 24.9668 21.9873 25.8072 21.6392C26.6476 21.2911 27.4113 20.7809 28.0545 20.1376C28.6978 19.4944 29.208 18.7307 29.5561 17.8903C29.9042 17.0499 30.0834 16.1491 30.0834 15.2394V7.58318C30.0834 5.96443 29.204 4.54984 27.8959 3.79297V15.2394C27.8959 16.4964 27.3966 17.702 26.5077 18.5908C25.6189 19.4797 24.4134 19.979 23.1563 19.979H4.41821Z" fill="url(#paint2_linear)"/>
<defs>
<linearGradient id="paint0_linear" x1="13.3125" y1="4.6665" x2="13.3125" y2="13.4165" gradientUnits="userSpaceOnUse">
<stop stop-color="#485563"/>
<stop offset="1" stop-color="#29323C"/>
</linearGradient>
<linearGradient id="paint1_linear" x1="13.3126" y1="0.291504" x2="13.3126" y2="17.7915" gradientUnits="userSpaceOnUse">
<stop stop-color="#485563"/>
<stop offset="1" stop-color="#29323C"/>
</linearGradient>
<linearGradient id="paint2_linear" x1="17.2508" y1="3.79297" x2="17.2508" y2="22.1665" gradientUnits="userSpaceOnUse">
<stop stop-color="#485563"/>
<stop offset="1" stop-color="#29323C"/>
</linearGradient>
</defs>
</svg>
