<svg width="19" height="20" viewBox="0 0 19 20" xmlns="http://www.w3.org/2000/svg">
<path fill-rule="evenodd" clip-rule="evenodd" d="M4.22876 0.943359C2.01962 0.943359 0.22876 2.73422 0.22876 4.94336V15.2291C0.22876 17.4382 2.01962 19.2291 4.22876 19.2291H14.5145C16.7236 19.2291 18.5145 17.4382 18.5145 15.2291V4.94336C18.5145 2.73422 16.7236 0.943359 14.5145 0.943359H4.22876ZM11.8484 12.9739V19.2289H9.26266V12.9732H7.10059V10.5353H9.26266V8.73742C9.26266 6.65083 10.5711 5.51465 12.483 5.51465C13.3988 5.51465 14.1854 5.58128 14.4149 5.6109V7.79173L13.0891 7.7924C12.0496 7.7924 11.8484 8.27366 11.8484 8.97906V10.5359H14.3278L14.005 12.9739H11.8484Z"/>
</svg>
