<svg width="19" height="20" viewBox="0 0 19 20" xmlns="http://www.w3.org/2000/svg">
<path fill-rule="evenodd" clip-rule="evenodd" d="M9.45731 0.942871C6.97426 0.942871 6.66341 0.953538 5.68817 0.997728C2.36779 1.15011 0.522453 2.99239 0.370072 6.31582C0.32512 7.29182 0.314453 7.60268 0.314453 10.0857C0.314453 12.5688 0.32512 12.8804 0.36931 13.8556C0.521691 17.176 2.36398 19.0213 5.68741 19.1737C6.66341 19.2179 6.97426 19.2286 9.45731 19.2286C11.9404 19.2286 12.252 19.2179 13.2272 19.1737C16.5445 19.0213 18.3945 17.1791 18.5445 13.8556C18.5895 12.8804 18.6002 12.5688 18.6002 10.0857C18.6002 7.60268 18.5895 7.29182 18.5453 6.31659C18.396 2.99925 16.5514 1.15087 13.228 0.99849C12.252 0.953538 11.9404 0.942871 9.45731 0.942871ZM9.45731 5.39087C6.86455 5.39087 4.76245 7.49297 4.76245 10.0857C4.76245 12.6785 6.86455 14.7813 9.45731 14.7813C12.0501 14.7813 14.1522 12.6793 14.1522 10.0857C14.1522 7.49297 12.0501 5.39087 9.45731 5.39087ZM9.4573 13.1333C7.77426 13.1333 6.40968 11.7695 6.40968 10.0857C6.40968 8.40267 7.77426 7.0381 9.4573 7.0381C11.1404 7.0381 12.5049 8.40267 12.5049 10.0857C12.5049 11.7695 11.1404 13.1333 9.4573 13.1333ZM14.3381 4.10859C13.7316 4.10859 13.2402 4.60002 13.2402 5.20574C13.2402 5.81145 13.7316 6.30288 14.3381 6.30288C14.9438 6.30288 15.4345 5.81145 15.4345 5.20574C15.4345 4.60002 14.9438 4.10859 14.3381 4.10859Z"/>
</svg>
