<svg width="19" height="16" viewBox="0 0 19 16" xmlns="http://www.w3.org/2000/svg">
<path fill-rule="evenodd" clip-rule="evenodd" d="M18.6861 2.53072C18.0133 2.82939 17.2903 3.03053 16.5314 3.1212C17.3063 2.6572 17.9013 1.92196 18.181 1.04577C17.4564 1.47548 16.6533 1.78787 15.7985 1.95625C15.1151 1.2271 14.1391 0.771484 13.0602 0.771484C10.6381 0.771484 8.8583 3.03129 9.40534 5.3772C6.28839 5.22101 3.5242 3.72767 1.67353 1.45796C0.690676 3.14406 1.16382 5.34977 2.83391 6.46672C2.21982 6.44691 1.64077 6.27853 1.13563 5.99739C1.09449 7.73529 2.3402 9.3612 4.14439 9.7231C3.61639 9.86634 3.03811 9.89987 2.44991 9.7871C2.92687 11.2774 4.31201 12.3616 5.95468 12.3921C4.37753 13.6286 2.39049 14.181 0.400391 13.9463C2.06058 15.0107 4.03315 15.6317 6.15125 15.6317C13.1166 15.6317 17.0518 9.74901 16.8141 4.47282C17.5471 3.94329 18.1832 3.28272 18.6861 2.53072Z"/>
</svg>
