<svg width="132" height="67" viewBox="0 0 132 67" xmlns="http://www.w3.org/2000/svg">
<path d="M48.709 46.5801C47.2207 46.5801 45.791 46.2871 44.4199 45.7012C43.0605 45.1152 41.8535 44.2715 40.7988 43.1699C39.7559 42.0684 38.9238 40.7266 38.3027 39.1445C37.6816 37.5508 37.3711 35.7578 37.3711 33.7656C37.3711 31.7734 37.6758 29.9688 38.2852 28.3516C38.8945 26.7227 39.7383 25.3223 40.8164 24.1504C41.8828 22.9902 43.1426 22.0938 44.5957 21.4609C46.0488 20.8281 47.6016 20.5117 49.2539 20.5117C50.4844 20.5117 51.5977 20.6641 52.5938 20.9688C53.5898 21.2734 54.5391 21.7012 55.4414 22.252L56.1621 21.0566H57.5684L57.7266 29.9512H56.2852C56.0977 29.084 55.8164 28.1465 55.4414 27.1387C55.0664 26.1191 54.627 25.2578 54.123 24.5547C53.5605 23.7578 52.8926 23.1367 52.1191 22.6914C51.3457 22.2344 50.4609 22.0059 49.4648 22.0059C48.3281 22.0059 47.2676 22.2578 46.2832 22.7617C45.3105 23.2656 44.4668 24.0098 43.752 24.9941C43.0723 25.9434 42.5391 27.1504 42.1523 28.6152C41.7656 30.0801 41.5723 31.7148 41.5723 33.5195C41.5723 35.1133 41.7715 36.5781 42.1699 37.9141C42.5801 39.2383 43.1602 40.4043 43.9102 41.4121C44.6602 42.4082 45.5449 43.1875 46.5645 43.75C47.5957 44.3125 48.7441 44.5938 50.0098 44.5938C50.959 44.5938 51.832 44.4473 52.6289 44.1543C53.4258 43.8496 54.1172 43.4512 54.7031 42.959C55.2891 42.4434 55.8047 41.8574 56.25 41.2012C56.6953 40.5449 57.0586 39.8301 57.3398 39.0566L58.6582 39.6895C57.6504 42.1621 56.3145 43.9316 54.6504 44.998C52.9863 46.0527 51.0059 46.5801 48.709 46.5801ZM68.5195 46H60.0645V44.8398C60.334 44.8164 60.6211 44.793 60.9258 44.7695C61.2305 44.7344 61.4824 44.6875 61.6816 44.6289C62.0098 44.5234 62.2559 44.3418 62.4199 44.084C62.584 43.8145 62.666 43.4688 62.666 43.0469V22.9727C62.666 22.5508 62.5723 22.1582 62.3848 21.7949C62.209 21.4199 61.9746 21.127 61.6816 20.916C61.4707 20.7754 61.084 20.6465 60.5215 20.5293C59.959 20.4121 59.5078 20.3418 59.168 20.3184V19.1934L65.6895 18.7891L65.9355 19.0527V42.8359C65.9355 43.2461 66.0117 43.5859 66.1641 43.8555C66.3164 44.1133 66.5625 44.3125 66.9023 44.4531C67.1602 44.5703 67.4121 44.6582 67.6582 44.7168C67.916 44.7754 68.2031 44.8164 68.5195 44.8398V46ZM87.1172 45.6836C86.5664 45.8828 86.0801 46.041 85.6582 46.1582C85.248 46.2871 84.7793 46.3516 84.252 46.3516C83.3379 46.3516 82.6055 46.1406 82.0547 45.7188C81.5156 45.2852 81.1699 44.6582 81.0176 43.8379H80.9121C80.1504 44.6816 79.3301 45.3262 78.4512 45.7715C77.584 46.2168 76.5352 46.4395 75.3047 46.4395C74.0039 46.4395 72.9316 46.041 72.0879 45.2441C71.2559 44.4473 70.8398 43.4043 70.8398 42.1152C70.8398 41.4473 70.9336 40.8496 71.1211 40.3223C71.3086 39.7949 71.5898 39.3203 71.9648 38.8984C72.2578 38.5469 72.6445 38.2363 73.125 37.9668C73.6055 37.6855 74.0566 37.4629 74.4785 37.2988C75.0059 37.0996 76.0723 36.7305 77.6777 36.1914C79.2949 35.6523 80.3848 35.2305 80.9473 34.9258V33.1855C80.9473 33.0332 80.9121 32.7402 80.8418 32.3066C80.7832 31.873 80.6484 31.4629 80.4375 31.0762C80.2031 30.6426 79.8691 30.2676 79.4355 29.9512C79.0137 29.623 78.4102 29.459 77.625 29.459C77.0859 29.459 76.582 29.5527 76.1133 29.7402C75.6562 29.916 75.334 30.1035 75.1465 30.3027C75.1465 30.5371 75.1992 30.8828 75.3047 31.3398C75.4219 31.7969 75.4805 32.2188 75.4805 32.6055C75.4805 33.0156 75.293 33.3906 74.918 33.7305C74.5547 34.0703 74.0449 34.2402 73.3887 34.2402C72.8027 34.2402 72.3691 34.0352 72.0879 33.625C71.8184 33.2031 71.6836 32.7344 71.6836 32.2188C71.6836 31.6797 71.8711 31.1641 72.2461 30.6719C72.6328 30.1797 73.1309 29.7402 73.7402 29.3535C74.2676 29.0254 74.9062 28.75 75.6562 28.5273C76.4062 28.293 77.1387 28.1758 77.8535 28.1758C78.8379 28.1758 79.6934 28.2461 80.4199 28.3867C81.1582 28.5156 81.8262 28.8027 82.4238 29.248C83.0215 29.6816 83.4727 30.2734 83.7773 31.0234C84.0938 31.7617 84.252 32.7168 84.252 33.8887C84.252 35.5645 84.2344 37.0527 84.1992 38.3535C84.1641 39.6426 84.1465 41.0547 84.1465 42.5898C84.1465 43.0469 84.2227 43.4102 84.375 43.6797C84.5391 43.9492 84.7852 44.1777 85.1133 44.3652C85.2891 44.4707 85.5645 44.5293 85.9395 44.541C86.3262 44.5527 86.7188 44.5586 87.1172 44.5586V45.6836ZM80.9824 36.4023C79.9863 36.6953 79.1133 36.9824 78.3633 37.2637C77.6133 37.5449 76.916 37.8965 76.2715 38.3184C75.6855 38.7168 75.2227 39.1914 74.8828 39.7422C74.543 40.2812 74.373 40.9258 74.373 41.6758C74.373 42.6484 74.625 43.3633 75.1289 43.8203C75.6445 44.2773 76.2949 44.5059 77.0801 44.5059C77.9121 44.5059 78.6445 44.3066 79.2773 43.9082C79.9102 43.498 80.4434 43.0176 80.877 42.4668L80.9824 36.4023ZM105.961 29.7402C105.434 29.834 104.93 30.0273 104.449 30.3203C103.98 30.6016 103.576 31.1055 103.236 31.832C102.545 33.4023 101.83 35.043 101.092 36.7539C100.354 38.4531 99.5859 40.2402 98.7891 42.1152C98.5547 42.6543 98.3027 43.293 98.0332 44.0312C97.7754 44.7695 97.5352 45.4785 97.3125 46.1582H95.9414C94.8281 43.4043 93.8027 40.8965 92.8652 38.6348C91.9277 36.3613 90.9551 34.0352 89.9473 31.6562C89.7129 31.1172 89.332 30.7012 88.8047 30.4082C88.2891 30.1035 87.7676 29.9102 87.2402 29.8281V28.668H95.2559V29.8984C94.9043 29.9102 94.4648 29.9863 93.9375 30.127C93.4102 30.2559 93.1465 30.4375 93.1465 30.6719C93.1465 30.707 93.1758 30.8008 93.2344 30.9531C93.293 31.0938 93.3516 31.2578 93.4102 31.4453C93.8906 32.6406 94.5703 34.3105 95.4492 36.4551C96.3281 38.5996 97.043 40.3281 97.5938 41.6406C98.0156 40.6328 98.543 39.3789 99.1758 37.8789C99.8203 36.3789 100.512 34.7031 101.25 32.8516C101.367 32.5352 101.479 32.2422 101.584 31.9727C101.689 31.6914 101.742 31.4102 101.742 31.1289C101.742 30.9297 101.643 30.7539 101.443 30.6016C101.256 30.4375 101.027 30.2969 100.758 30.1797C100.488 30.0625 100.225 29.9746 99.9668 29.916C99.709 29.8574 99.498 29.8164 99.334 29.793V28.668H105.961V29.7402ZM115.154 46H106.77V44.8398C107.039 44.8164 107.314 44.793 107.596 44.7695C107.889 44.7461 108.141 44.6992 108.352 44.6289C108.68 44.5234 108.92 44.3418 109.072 44.084C109.236 43.8145 109.318 43.4688 109.318 43.0469V32.3418C109.318 31.9668 109.23 31.627 109.055 31.3223C108.891 31.0059 108.656 30.7422 108.352 30.5312C108.129 30.3906 107.807 30.2734 107.385 30.1797C106.963 30.0742 106.576 30.0098 106.225 29.9863V28.8438L112.342 28.457L112.588 28.7031V42.8359C112.588 43.2461 112.664 43.5859 112.816 43.8555C112.98 44.125 113.232 44.3242 113.572 44.4531C113.83 44.5586 114.082 44.6465 114.328 44.7168C114.574 44.7754 114.85 44.8164 115.154 44.8398V46ZM112.939 21.6191C112.939 22.2871 112.717 22.873 112.271 23.377C111.838 23.8691 111.299 24.1152 110.654 24.1152C110.057 24.1152 109.535 23.8809 109.09 23.4121C108.656 22.9316 108.439 22.3867 108.439 21.7773C108.439 21.1328 108.656 20.5703 109.09 20.0898C109.535 19.6094 110.057 19.3691 110.654 19.3691C111.322 19.3691 111.867 19.5977 112.289 20.0547C112.723 20.5 112.939 21.0215 112.939 21.6191ZM128.725 37.5098C129.205 37.9316 129.574 38.418 129.832 38.9688C130.09 39.5195 130.219 40.1934 130.219 40.9902C130.219 42.5957 129.615 43.9082 128.408 44.9277C127.213 45.9473 125.66 46.457 123.75 46.457C122.742 46.457 121.811 46.2754 120.955 45.9121C120.111 45.5488 119.508 45.2148 119.145 44.9102L118.793 46.0527H117.475L117.299 40.0234H118.512C118.605 40.4805 118.805 41.0137 119.109 41.623C119.414 42.2324 119.783 42.7832 120.217 43.2754C120.674 43.791 121.219 44.2246 121.852 44.5762C122.496 44.9277 123.217 45.1035 124.014 45.1035C125.139 45.1035 126.006 44.8516 126.615 44.3477C127.225 43.832 127.529 43.0996 127.529 42.1504C127.529 41.6582 127.43 41.2363 127.23 40.8848C127.043 40.5215 126.762 40.2051 126.387 39.9355C126 39.666 125.525 39.4258 124.963 39.2148C124.4 38.9922 123.773 38.7754 123.082 38.5645C122.531 38.4004 121.916 38.1777 121.236 37.8965C120.568 37.6035 119.994 37.2637 119.514 36.877C118.998 36.4668 118.576 35.9629 118.248 35.3652C117.92 34.7676 117.756 34.0645 117.756 33.2559C117.756 31.8379 118.283 30.6367 119.338 29.6523C120.393 28.668 121.805 28.1758 123.574 28.1758C124.254 28.1758 124.945 28.2637 125.648 28.4395C126.363 28.6152 126.943 28.8262 127.389 29.0723L127.793 28.1582H129.059L129.322 33.7305H128.109C127.863 32.4883 127.33 31.4805 126.51 30.707C125.701 29.9219 124.711 29.5293 123.539 29.5293C122.578 29.5293 121.822 29.7695 121.271 30.25C120.721 30.7305 120.445 31.3105 120.445 31.9902C120.445 32.5176 120.533 32.957 120.709 33.3086C120.896 33.6602 121.172 33.959 121.535 34.2051C121.887 34.4395 122.326 34.6621 122.854 34.873C123.393 35.0723 124.055 35.3008 124.84 35.5586C125.613 35.8047 126.34 36.0918 127.02 36.4199C127.711 36.748 128.279 37.1113 128.725 37.5098Z"/>
<path d="M14.7597 45.7794C14.198 43.969 13.2409 37.3398 19.1659 37.0723C21.5399 36.9652 23.3754 38.6882 23.9347 40.4633C24.5086 42.2862 24.1086 48.7613 17.4283 49.2313C14.6012 49.4311 10.5673 47.5043 9.11686 45.0475C4.18927 36.7089 12.1032 31.6072 13.1062 30.8257C16.8257 27.9508 29.3841 24.2938 29.9041 8.32495C29.9488 6.87225 29.7189 5.21196 28.7818 4.04293C27.1147 1.97271 24.6535 3.07591 23.0368 4.44813C21.0389 6.13721 19.4399 10.4725 19.0454 12.9848C17.6793 21.6617 18.6296 30.9006 18.6196 31.5102C18.6016 32.5558 19.0542 42.0271 19.1066 42.6947C20.0048 53.2803 19.2711 56.8495 18.128 59.9537C16.7945 63.5795 11.0201 65.177 9.31193 61.0739C10.1571 61.3629 12.6057 60.7643 12.9036 58.4254C13.2879 55.3987 10.8133 54.2212 8.62359 54.7504C6.54404 55.2534 5.50448 57.8474 6.28749 60.2569C7.17562 62.9922 11.3296 65.4318 14.8428 64.5821C22.5842 62.7063 20.4 44.9292 20.1493 41.8669C19.8618 38.4387 18.4128 19.3358 20.7041 12.1885C21.8577 8.58913 25.3351 5.65782 26.8724 7.79991C28.5318 10.1172 27.3371 13.5586 26.7834 14.734C24.9863 18.5248 21.5782 21.0829 18.0616 23.1206C14.6527 25.0966 10.6092 27.5744 8.03341 30.6228C5.21354 33.9525 4.22303 40.1826 6.39733 44.2257C7.14087 45.6023 9.10715 48.5617 12.802 49.9041C18.3265 51.9189 26.8523 50.9459 28.0669 42.396C29.1375 34.8748 20.9249 31.0701 15.8982 33.697C14.755 34.2945 13.6815 35.2202 12.9552 36.3639C11.0389 39.4033 11.5845 44.1247 14.7597 45.7794Z"/>
</svg>
