<svg width="42" height="42" viewBox="0 0 42 42" xmlns="http://www.w3.org/2000/svg">
<path d="M11.625 17.0938C11.625 16.6302 11.7625 16.1771 12.02 15.7916C12.2775 15.4062 12.6436 15.1058 13.0718 14.9284C13.5001 14.751 13.9714 14.7046 14.426 14.795C14.8806 14.8855 15.2983 15.1087 15.626 15.4365C15.9538 15.7642 16.177 16.1819 16.2675 16.6365C16.3579 17.0912 16.3115 17.5624 16.1341 17.9907C15.9567 18.4189 15.6563 18.785 15.2709 19.0425C14.8854 19.3 14.4323 19.4375 13.9688 19.4375C13.3472 19.4375 12.751 19.1906 12.3115 18.751C11.8719 18.3115 11.625 17.7154 11.625 17.0938ZM28.0313 19.4375C28.4948 19.4375 28.948 19.3 29.3334 19.0425C29.7188 18.785 30.0192 18.4189 30.1966 17.9907C30.374 17.5624 30.4204 17.0912 30.33 16.6365C30.2395 16.1819 30.0163 15.7642 29.6885 15.4365C29.3608 15.1087 28.9431 14.8855 28.4885 14.795C28.0339 14.7046 27.5626 14.751 27.1343 14.9284C26.7061 15.1058 26.34 15.4062 26.0825 15.7916C25.825 16.1771 25.6875 16.6302 25.6875 17.0938C25.6875 17.7154 25.9344 18.3115 26.374 18.751C26.8135 19.1906 27.4097 19.4375 28.0313 19.4375ZM41.3125 21C41.3125 25.0174 40.1212 28.9446 37.8892 32.285C35.6573 35.6254 32.4849 38.2289 28.7733 39.7663C25.0616 41.3037 20.9775 41.706 17.0372 40.9222C13.097 40.1384 9.47766 38.2039 6.6369 35.3631C3.79615 32.5224 1.86157 28.903 1.07781 24.9628C0.294046 21.0225 0.696301 16.9384 2.23371 13.2267C3.77111 9.51512 6.37462 6.34274 9.71499 4.11077C13.0554 1.87881 16.9826 0.6875 21 0.6875C26.3853 0.6936 31.5484 2.83562 35.3564 6.64363C39.1644 10.4516 41.3064 15.6147 41.3125 21ZM38.1875 21C38.1875 17.6006 37.1795 14.2776 35.2909 11.4511C33.4023 8.62467 30.718 6.4217 27.5774 5.12082C24.4368 3.81994 20.9809 3.47957 17.6469 4.14275C14.3128 4.80594 11.2503 6.44289 8.84661 8.8466C6.4429 11.2503 4.80595 14.3128 4.14276 17.6469C3.47958 20.9809 3.81995 24.4368 5.12083 27.5774C6.42171 30.718 8.62468 33.4023 11.4511 35.2909C14.2776 37.1795 17.6006 38.1875 21 38.1875C25.5568 38.1823 29.9255 36.3699 33.1477 33.1477C36.3699 29.9255 38.1823 25.5568 38.1875 21ZM28.734 27.3283C27.5473 26.1428 26.1039 25.246 24.5154 24.7072C22.9269 24.1683 21.2358 24.0019 19.5727 24.2207C17.9096 24.4395 16.3191 25.0377 14.924 25.9691C13.5289 26.9004 12.3667 28.1401 11.527 29.5922C11.4242 29.7698 11.3574 29.9659 11.3305 30.1693C11.3035 30.3727 11.3168 30.5795 11.3698 30.7777C11.4227 30.976 11.5141 31.1618 11.6389 31.3247C11.7637 31.4876 11.9193 31.6244 12.0969 31.7271C12.2745 31.8299 12.4706 31.8967 12.674 31.9237C12.8774 31.9506 13.0842 31.9373 13.2824 31.8844C13.4806 31.8314 13.6665 31.74 13.8294 31.6152C13.9923 31.4905 14.1291 31.3348 14.2318 31.1572C15.0845 29.6842 16.3928 28.5282 17.9596 27.8633C19.3916 27.2576 20.9719 27.0934 22.4979 27.3918C24.0238 27.6902 25.4259 28.4375 26.5242 29.5381C27.0077 30.0213 27.4259 30.5657 27.7684 31.1572C27.9759 31.5159 28.3174 31.7775 28.7178 31.8844C29.1182 31.9914 29.5446 31.9349 29.9033 31.7273C30.262 31.5198 30.5236 31.1783 30.6306 30.7779C30.7375 30.3776 30.681 29.9511 30.4734 29.5924C29.9946 28.7652 29.4099 28.0041 28.734 27.3283Z"/>
</svg>
