<svg width="42" height="42" viewBox="0 0 42 42" xmlns="http://www.w3.org/2000/svg">
<path d="M11.625 17.0938C11.625 16.6302 11.7625 16.1771 12.02 15.7916C12.2775 15.4062 12.6436 15.1058 13.0718 14.9284C13.5001 14.751 13.9714 14.7046 14.426 14.795C14.8806 14.8855 15.2983 15.1087 15.626 15.4365C15.9538 15.7642 16.177 16.1819 16.2675 16.6365C16.3579 17.0912 16.3115 17.5624 16.1341 17.9907C15.9567 18.4189 15.6563 18.785 15.2709 19.0425C14.8854 19.3 14.4323 19.4375 13.9688 19.4375C13.3472 19.4375 12.751 19.1906 12.3115 18.751C11.8719 18.3115 11.625 17.7154 11.625 17.0938ZM28.0313 19.4375C28.4948 19.4375 28.948 19.3 29.3334 19.0425C29.7188 18.785 30.0192 18.4189 30.1966 17.9907C30.374 17.5624 30.4204 17.0912 30.33 16.6365C30.2395 16.1819 30.0163 15.7642 29.6885 15.4365C29.3608 15.1087 28.9431 14.8855 28.4885 14.795C28.0339 14.7046 27.5626 14.751 27.1343 14.9284C26.7061 15.1058 26.34 15.4062 26.0825 15.7916C25.825 16.1771 25.6875 16.6302 25.6875 17.0938C25.6875 17.7154 25.9344 18.3115 26.374 18.751C26.8135 19.1906 27.4097 19.4375 28.0313 19.4375ZM41.3125 21C41.3125 25.0174 40.1212 28.9446 37.8892 32.285C35.6573 35.6254 32.4849 38.2289 28.7733 39.7663C25.0616 41.3037 20.9775 41.706 17.0372 40.9222C13.097 40.1384 9.47766 38.2039 6.6369 35.3631C3.79615 32.5224 1.86157 28.903 1.07781 24.9628C0.294046 21.0225 0.696301 16.9384 2.23371 13.2267C3.77111 9.51512 6.37462 6.34274 9.71499 4.11077C13.0554 1.87881 16.9826 0.6875 21 0.6875C26.3853 0.6936 31.5484 2.83562 35.3564 6.64363C39.1644 10.4516 41.3064 15.6147 41.3125 21ZM38.1875 21C38.1875 17.6006 37.1795 14.2776 35.2909 11.4511C33.4023 8.62467 30.718 6.4217 27.5774 5.12082C24.4368 3.81994 20.9809 3.47957 17.6469 4.14275C14.3128 4.80594 11.2503 6.44289 8.84661 8.8466C6.4429 11.2503 4.80595 14.3128 4.14276 17.6469C3.47958 20.9809 3.81995 24.4368 5.12083 27.5774C6.42171 30.718 8.62468 33.4023 11.4511 35.2909C14.2776 37.1795 17.6006 38.1875 21 38.1875C25.5568 38.1823 29.9255 36.3699 33.1477 33.1477C36.3699 29.9255 38.1823 25.5568 38.1875 21ZM29.9031 24.3342C29.5444 24.1267 29.118 24.0703 28.7176 24.1772C28.3173 24.2842 27.9758 24.5458 27.7684 24.9045C26.9157 26.3776 25.6073 27.5336 24.0404 28.1984C22.6084 28.8042 21.028 28.9684 19.502 28.6699C17.976 28.3715 16.574 27.624 15.4756 26.5234C14.9923 26.0402 14.5742 25.496 14.2318 24.9045C14.0243 24.5458 13.6828 24.2842 13.2824 24.1773C12.8821 24.0703 12.4556 24.1269 12.0969 24.3344C11.7382 24.5419 11.4766 24.8834 11.3697 25.2838C11.2627 25.6842 11.3193 26.1106 11.5268 26.4693C12.4877 28.1312 13.8689 29.511 15.5317 30.4702C17.1945 31.4295 19.0804 31.9344 21.0001 31.9344C22.9197 31.9344 24.8056 31.4294 26.4684 30.4701C28.1312 29.5108 29.5123 28.131 30.4733 26.4691C30.6807 26.1104 30.7372 25.684 30.6303 25.2837C30.5234 24.8834 30.2618 24.5419 29.9031 24.3344V24.3342Z"/>
</svg>
