<svg width="42" height="42" viewBox="0 0 42 42" xmlns="http://www.w3.org/2000/svg">
<path d="M11.625 17.0938C11.625 16.6302 11.7625 16.1771 12.02 15.7916C12.2775 15.4062 12.6436 15.1058 13.0718 14.9284C13.5001 14.751 13.9714 14.7046 14.426 14.795C14.8806 14.8855 15.2983 15.1087 15.626 15.4365C15.9538 15.7642 16.177 16.1819 16.2675 16.6365C16.3579 17.0912 16.3115 17.5624 16.1341 17.9907C15.9567 18.4189 15.6563 18.785 15.2709 19.0425C14.8854 19.3 14.4323 19.4375 13.9688 19.4375C13.3472 19.4375 12.751 19.1906 12.3115 18.751C11.8719 18.3115 11.625 17.7154 11.625 17.0938ZM28.0313 14.75C27.5677 14.75 27.1146 14.8875 26.7291 15.145C26.3437 15.4025 26.0433 15.7686 25.8659 16.1968C25.6885 16.6251 25.6421 17.0963 25.7325 17.551C25.823 18.0056 26.0462 18.4233 26.374 18.751C26.7018 19.0788 27.1194 19.302 27.574 19.3925C28.0287 19.4829 28.4999 19.4365 28.9282 19.2591C29.3564 19.0817 29.7225 18.7813 29.98 18.3959C30.2376 18.0104 30.375 17.5573 30.375 17.0938C30.375 16.4721 30.1281 15.876 29.6885 15.4365C29.249 14.9969 28.6529 14.75 28.0313 14.75ZM41.3125 21C41.3125 25.0174 40.1212 28.9446 37.8892 32.285C35.6573 35.6254 32.4849 38.2289 28.7733 39.7663C25.0616 41.3037 20.9775 41.706 17.0372 40.9222C13.097 40.1384 9.47766 38.2039 6.6369 35.3631C3.79615 32.5224 1.86157 28.903 1.07781 24.9628C0.294046 21.0225 0.696301 16.9384 2.23371 13.2267C3.77111 9.51512 6.37462 6.34274 9.71499 4.11077C13.0554 1.87881 16.9826 0.6875 21 0.6875C26.3853 0.6936 31.5484 2.83562 35.3564 6.64363C39.1644 10.4516 41.3064 15.6147 41.3125 21ZM38.1875 21C38.1875 17.6006 37.1795 14.2776 35.2909 11.4511C33.4023 8.62467 30.718 6.4217 27.5774 5.12082C24.4368 3.81994 20.9809 3.47957 17.6469 4.14275C14.3128 4.80594 11.2503 6.44289 8.84661 8.8466C6.4429 11.2503 4.80595 14.3128 4.14276 17.6469C3.47958 20.9809 3.81995 24.4368 5.12083 27.5774C6.42171 30.718 8.62468 33.4023 11.4511 35.2909C14.2776 37.1795 17.6006 38.1875 21 38.1875C25.5568 38.1823 29.9255 36.3699 33.1477 33.1477C36.3699 29.9255 38.1823 25.5568 38.1875 21ZM28.8125 25.6875H13.1875C12.7731 25.6875 12.3757 25.8521 12.0827 26.1451C11.7896 26.4382 11.625 26.8356 11.625 27.25C11.625 27.6644 11.7896 28.0618 12.0827 28.3549C12.3757 28.6479 12.7731 28.8125 13.1875 28.8125H28.8125C29.2269 28.8125 29.6243 28.6479 29.9174 28.3549C30.2104 28.0618 30.375 27.6644 30.375 27.25C30.375 26.8356 30.2104 26.4382 29.9174 26.1451C29.6243 25.8521 29.2269 25.6875 28.8125 25.6875Z"/>
</svg>
